<svg width="480" height="480" viewBox="0 0 480 480" fill="none" xmlns="http://www.w3.org/2000/svg">
  <rect width="480" height="480" rx="48" fill="#CFE2E3"/>
  <path d="M121 323c12-42 32-74 67-101 28-22 63-38 99-43 24-3 49 0 72 11 30 15 28 44-5 56-18 6-37 7-56 7-32 1-64 3-94 12-26 8-49 21-70 38l-13 10Z" fill="#FDE6B1"/>
  <path d="M114 339c14-40 37-71 75-95 28-18 60-30 93-35 23-4 47-2 69 7 30 12 30 39 0 50-16 7-34 9-51 10-31 3-62 8-90 20-24 10-45 24-64 42l-12 11Z" fill="#F5B33E"/>
  <path d="M215 168c5-17 16-31 31-41 18-11 41-15 61-9 25 7 37 30 20 50-9 10-21 16-34 20-19 7-38 13-57 20-12 4-17-2-17-14-2-8-4-17-4-26Z" fill="#111826"/>
  <path d="M191 229c3-29 20-52 46-66 23-12 52-16 78-9 32 9 45 37 19 59-13 11-29 18-45 22-24 6-48 11-71 18-13 4-28-1-27-18v-6Z" fill="#110F0F"/>
  <path d="M160 274c8-30 29-54 57-67 24-11 53-13 78-4 32 12 39 39 9 57-14 8-30 13-46 16-25 5-49 9-74 15-11 3-22-1-24-13v-4Z" fill="#1E1E1E"/>
  <path d="M269 168c-5-6-9-13-12-20-4-11 1-22 6-33 8-16 21-25 39-26 21 0 35 18 25 37-6 11-15 20-25 27-10 7-22 12-33 15Z" fill="#F5F5F5"/>
  <path d="M303 132c-6-12-5-24 3-35 8-10 20-11 30-3 12 10 13 27 2 39-9 10-25 9-35-1Z" fill="#ADE0EC"/>
  <path d="M128 347c45 18 90 20 136 10 30-6 60-15 83-36 19-17 25-38 13-52-13-16-34-15-53-11-31 7-58 23-83 42-25 19-50 37-78 51-7 3-12 2-18-1Z" fill="#BC4A0F"/>
  <path d="M126 350c45 17 92 17 138 6 30-7 59-18 82-38 18-15 23-35 10-49-14-16-36-14-55-9-31 8-58 24-83 42-25 19-50 37-79 50-7 3-11 3-16-2Z" fill="#D05B1A"/>
  <path d="M112 353c10-5 21-5 32-4 20 2 39 5 58 10 7 2 9 5 5 12-3 7-9 10-17 10-22 0-43-5-63-15-6-3-10-7-15-13Z" fill="#111826"/>
  <path d="M313 305c18 1 36-2 53-10 8-3 16-8 23-14 6-5 12-4 16 3 4 7 2 14-5 19a184 184 0 0 1-82 30c-6 1-10-1-11-7-1-8 2-14 6-21Z" fill="#111826"/>
  <ellipse cx="235" cy="388" rx="110" ry="15" fill="#B4C9C9" opacity=".6"/>
  <circle cx="170" cy="186" r="10" fill="#111826"/>
  <circle cx="340" cy="180" r="10" fill="#111826"/>
  <path d="M182 186c3-8 11-12 19-11 6 1 10 6 9 12-2 6-8 11-14 11-7 0-13-4-14-12Z" fill="#fff"/>
  <path d="M329 180c2-6 8-10 15-9 5 1 9 6 7 11-1 6-6 10-12 11-7 1-12-3-10-13Z" fill="#fff"/>
  <path d="M196 205c8 11 19 18 33 18 15 0 27-6 36-17" stroke="#F6CF67" stroke-width="6" stroke-linecap="round"/>
  <path d="M189 234c18 25 41 36 69 34 25-2 44-13 58-32" stroke="#F6CF67" stroke-width="8" stroke-linecap="round"/>
  <path d="M160 266c15 30 39 45 71 45 33 0 57-15 70-44" stroke="#F6CF67" stroke-width="10" stroke-linecap="round"/>
</svg>
